<?xml version="1.0" standalone="no"?>
<!DOCTYPE svg PUBLIC "-//W3C//DTD SVG 1.1//EN" "http://www.w3.org/Graphics/SVG/1.1/DTD/svg11.dtd"><svg t="1647966825081"
    id="calander" class="icon" viewBox="0 0 1024 1024" version="1.1" xmlns="http://www.w3.org/2000/svg" p-id="4570"
    xmlns:xlink="http://www.w3.org/1999/xlink" width="26" height="26">
    <defs>
        <style type="text/css">
            @font-face {
                font-family: feedback-iconfont;
                src: url("//at.alicdn.com/t/font_1031158_u69w8yhxdu.woff2?t=1630033759944") format("woff2"), url("//at.alicdn.com/t/font_1031158_u69w8yhxdu.woff?t=1630033759944") format("woff"), url("//at.alicdn.com/t/font_1031158_u69w8yhxdu.ttf?t=1630033759944") format("truetype");
            }
        </style>
    </defs>
    <path
        d="M725.333333 170.666667h74.709334C864.853333 170.666667 917.333333 223.189333 917.333333 288.096V799.893333C917.333333 864.757333 864.832 917.333333 800.042667 917.333333H223.957333C159.146667 917.333333 106.666667 864.810667 106.666667 799.904V288.106667C106.666667 223.242667 159.168 170.666667 223.957333 170.666667H298.666667v-32a32 32 0 0 1 64 0v32h298.666666v-32a32 32 0 0 1 64 0v32z m0 64v32a32 32 0 0 1-64 0v-32H362.666667v32a32 32 0 0 1-64 0v-32h-74.709334A53.354667 53.354667 0 0 0 170.666667 288.096V799.893333A53.301333 53.301333 0 0 0 223.957333 853.333333h576.085334A53.354667 53.354667 0 0 0 853.333333 799.904V288.106667A53.301333 53.301333 0 0 0 800.042667 234.666667H725.333333z m-10.666666 224a32 32 0 0 1 0 64H309.333333a32 32 0 0 1 0-64h405.333334zM586.666667 618.666667a32 32 0 0 1 0 64H309.333333a32 32 0 0 1 0-64h277.333334z"
        p-id="4571"></path>
</svg>