<?xml version="1.0" standalone="no"?>
<!DOCTYPE svg PUBLIC "-//W3C//DTD SVG 1.1//EN" "http://www.w3.org/Graphics/SVG/1.1/DTD/svg11.dtd"><svg t="1647930500008"
    id='latest-update' class="icon" viewBox="0 0 1024 1024" version="1.1" xmlns="http://www.w3.org/2000/svg" p-id="2262"
    xmlns:xlink="http://www.w3.org/1999/xlink" width="26" height="26">
    <defs>
        <style type="text/css">
            @font-face {
                font-family: feedback-iconfont;
                src: url("//at.alicdn.com/t/font_1031158_u69w8yhxdu.woff2?t=1630033759944") format("woff2"), url("//at.alicdn.com/t/font_1031158_u69w8yhxdu.woff?t=1630033759944") format("woff"), url("//at.alicdn.com/t/font_1031158_u69w8yhxdu.ttf?t=1630033759944") format("truetype");
            }
        </style>
    </defs>
    <path
        d="M512.736 992a483.648 483.648 0 0 1-164.672-28.8 36.88 36.88 0 1 1 25.104-69.36 407.456 407.456 0 1 0-184.608-136.512A36.912 36.912 0 0 1 129.488 801.6a473.424 473.424 0 0 1-97.472-290A480 480 0 1 1 512.736 992z"
        p-id="2263"></path>
    <path
        d="M685.6 638.592a32 32 0 0 1-14.032-2.96l-178.048-73.888a36.8 36.8 0 0 1-22.912-34.016V236.672a36.944 36.944 0 1 1 73.888 0v266.72l155.2 64.272a36.336 36.336 0 0 1 19.952 48 37.616 37.616 0 0 1-34.048 22.928z"
        p-id="2264"></path>
</svg>