<?xml version="1.0" standalone="no"?>
<!DOCTYPE svg PUBLIC "-//W3C//DTD SVG 1.1//EN" "http://www.w3.org/Graphics/SVG/1.1/DTD/svg11.dtd"><svg t="1647966137425"
    id='love' class="icon" viewBox="0 0 1024 1024" version="1.1" xmlns="http://www.w3.org/2000/svg" p-id="3067"
    xmlns:xlink="http://www.w3.org/1999/xlink" width="26" height="26">
    <defs>
        <style type="text/css">
            @font-face {
                font-family: feedback-iconfont;
                src: url("//at.alicdn.com/t/font_1031158_u69w8yhxdu.woff2?t=1630033759944") format("woff2"), url("//at.alicdn.com/t/font_1031158_u69w8yhxdu.woff?t=1630033759944") format("woff"), url("//at.alicdn.com/t/font_1031158_u69w8yhxdu.ttf?t=1630033759944") format("truetype");
            }
        </style>
    </defs>
    <path
        d="M502.538 793.068L810.045 485.58a176.476 176.476 0 1 0-249.569-249.57l-57.938 57.918-57.917-57.917A176.476 176.476 0 0 0 195.05 485.58l307.487 307.487z m28.98 86.896a40.96 40.96 0 0 1-57.938 0L137.114 543.498C36.209 442.593 36.209 279 137.114 178.074c100.925-100.905 264.52-100.905 365.424 0 100.926-100.905 264.52-100.905 365.425 0 100.925 100.925 100.925 264.52 0 365.424L531.517 879.985z"
        p-id="3068"></path>
</svg>