<?xml version="1.0" standalone="no"?>
<!DOCTYPE svg PUBLIC "-//W3C//DTD SVG 1.1//EN" "http://www.w3.org/Graphics/SVG/1.1/DTD/svg11.dtd"><svg t="1647870296049"
    id='netease'  class="icon" viewBox="0 0 1024 1024" version="1.1" xmlns="http://www.w3.org/2000/svg" p-id="8435"
    xmlns:xlink="http://www.w3.org/1999/xlink" width="26" height="26">
    <defs>
        <style type="text/css">
            @font-face {
                font-family: feedback-iconfont;
                src: url("//at.alicdn.com/t/font_1031158_u69w8yhxdu.woff2?t=1630033759944") format("woff2"), url("//at.alicdn.com/t/font_1031158_u69w8yhxdu.woff?t=1630033759944") format("woff"), url("//at.alicdn.com/t/font_1031158_u69w8yhxdu.ttf?t=1630033759944") format("truetype");
            }
        </style>
    </defs>
    <path
        d="M628.8 4.8c28.8-6.4 59.2-6.4 84.8 0 32 6.4 62.4 22.4 88 43.2 9.6 6.4 19.2 16 22.4 28.8 8 16 8 35.2-6.4 52.8-9.6 12.8-22.4 22.4-38.4 25.6-12.8 3.2-25.6 0-38.4-6.4-6.4-3.2-9.6-9.6-16-12.8-16-9.6-35.2-19.2-56-19.2-12.8 0-25.6 9.6-35.2 19.2-9.6 9.6-12.8 22.4-9.6 35.2 6.4 25.6 12.8 52.8 19.2 78.4 49.6 3.2 100.8 16 144 43.2 43.2 25.6 78.4 59.2 110.4 97.6 25.6 32 46.4 72 56 110.4 12.8 43.2 16 88 12.8 134.4-3.2 35.2-9.6 75.2-22.4 107.2-32 84.8-91.2 160-169.6 208-56 35.2-120 59.2-188.8 65.6-46.4 6.4-91.2 6.4-137.6-3.2-94.4-16-182.4-62.4-248-131.2-65.6-65.6-113.6-153.6-131.2-244.8-14.4-67.2-14.4-136 3.2-204.8 19.2-81.6 59.2-160 116.8-222.4 49.6-49.6 104-91.2 169.6-116.8 6.4-3.2 12.8-6.4 19.2-6.4 16-3.2 32 0 43.2 9.6 16 12.8 25.6 32 22.4 52.8-3.2 19.2-16 38.4-35.2 46.4-65.6 22.4-123.2 68.8-163.2 123.2-35.2 49.6-62.4 107.2-68.8 169.6-9.6 62.4 0 123.2 19.2 179.2 32 84.8 94.4 156.8 172.8 195.2 49.6 25.6 100.8 38.4 156.8 35.2 46.4 0 88-6.4 131.2-22.4 35.2-12.8 72-32 100.8-59.2 25.6-22.4 49.6-52.8 68.8-84.8 9.6-16 16-32 22.4-52.8 12.8-52.8 16-107.2 0-156.8-16-35.2-43.2-75.2-75.2-104-16-12.8-28.8-25.6-49.6-35.2-16-9.6-32-12.8-49.6-19.2 12.8 46.4 22.4 91.2 35.2 137.6 3.2 9.6 3.2 22.4 6.4 32 3.2 46.4-16 94.4-46.4 131.2-28.8 32-68.8 59.2-110.4 65.6-46.4 9.6-97.6 0-137.6-25.6-38.4-22.4-65.6-62.4-81.6-104-9.6-22.4-12.8-49.6-12.8-75.2-3.2-56 12.8-110.4 43.2-156.8 35.2-56 94.4-91.2 156.8-110.4-3.2-16-9.6-35.2-12.8-52.8-12.8-38.4-9.6-81.6 9.6-116.8 9.6-19.2 22.4-35.2 38.4-52.8 22.4-11.2 44.8-24 67.2-30.4m-150.4 414.4c-16 16-28.8 38.4-32 62.4-3.2 22.4-3.2 43.2 0 65.6 6.4 22.4 16 46.4 38.4 62.4 16 9.6 35.2 12.8 56 9.6 35.2-6.4 62.4-38.4 65.6-75.2 0-9.6-3.2-16-6.4-25.6-12.8-49.6-25.6-97.6-38.4-147.2-33.6 9.6-59.2 25.6-83.2 48z"
        fill="#888888" p-id="8436"></path>
</svg>