<?xml version="1.0" standalone="no"?>
<!DOCTYPE svg PUBLIC "-//W3C//DTD SVG 1.1//EN" "http://www.w3.org/Graphics/SVG/1.1/DTD/svg11.dtd"><svg t="1647870386771"
    id='planet' class="icon" viewBox="0 0 1024 1024" version="1.1" xmlns="http://www.w3.org/2000/svg" p-id="3470"
    xmlns:xlink="http://www.w3.org/1999/xlink" width="26" height="26">
    <defs>
        <style type="text/css">
            @font-face {
                font-family: feedback-iconfont;
                src: url("//at.alicdn.com/t/font_1031158_u69w8yhxdu.woff2?t=1630033759944") format("woff2"), url("//at.alicdn.com/t/font_1031158_u69w8yhxdu.woff?t=1630033759944") format("woff"), url("//at.alicdn.com/t/font_1031158_u69w8yhxdu.ttf?t=1630033759944") format("truetype");
            }
        </style>
    </defs>
    <path
        d="M851.2 290.133333c42.666667-70.4 64-130.133333 36.266667-157.866666-23.466667-23.466667-64-17.066667-130.133334 21.333333-10.666667 6.4-14.933333 19.2-8.533333 29.866667 6.4 10.666667 19.2 12.8 29.866667 8.533333 61.866667-34.133333 78.933333-27.733333 78.933333-27.733333 14.933333 23.466667-72.533333 183.466667-290.133333 398.933333C352 780.8 192 866.133333 168.533333 853.333333c-2.133333-4.266667 0-38.4 49.066667-115.2 4.266667-8.533333 4.266667-17.066667 0-23.466666-42.666667-59.733333-64-132.266667-64-204.8C153.6 311.466667 315.733333 149.333333 514.133333 149.333333c55.466667 0 106.666667 12.8 155.733334 36.266667 10.666667 4.266667 23.466667 0 27.733333-10.666667 4.266667-10.666667 0-23.466667-10.666667-27.733333C631.466667 121.6 573.866667 106.666667 512 106.666667 290.133333 106.666667 108.8 288 108.8 509.866667c0 78.933333 23.466667 153.6 64 217.6-51.2 81.066667-61.866667 130.133333-36.266667 155.733333 8.533333 6.4 19.2 12.8 36.266667 12.8 23.466667 0 61.866667-12.8 121.6-51.2 64 42.666667 140.8 64 217.6 64 221.866667 0 403.2-181.333333 403.2-403.2 0-74.666667-21.333333-151.466667-64-215.466667zM514.133333 868.266667c-64 0-123.733333-17.066667-179.2-46.933334 78.933333-55.466667 172.8-134.4 264.533334-226.133333 70.4-70.4 164.266667-172.8 226.133333-264.533333 32 53.333333 46.933333 115.2 46.933333 179.2 0 196.266667-160 358.4-358.4 358.4z"
        fill="#3D3D3D" p-id="3471"></path>
    <path
        d="M326.4 448c-38.4 0-70.4 32-70.4 70.4 0 38.4 32 70.4 70.4 70.4s72.533333-32 72.533333-70.4c0-38.4-32-70.4-72.533333-70.4z m0 100.266667c-14.933333 0-27.733333-12.8-27.733333-27.733334s12.8-27.733333 27.733333-27.733333c14.933333 0 29.866667 12.8 29.866667 27.733333s-12.8 27.733333-29.866667 27.733334zM477.866667 390.4c44.8 0 81.066667-36.266667 81.066666-81.066667 0-44.8-36.266667-81.066667-81.066666-81.066666-44.8 0-81.066667 36.266667-81.066667 81.066666 0 42.666667 36.266667 81.066667 81.066667 81.066667z m0-121.6c21.333333 0 38.4 17.066667 38.4 38.4s-17.066667 38.4-38.4 38.4-38.4-17.066667-38.4-38.4 17.066667-38.4 38.4-38.4z"
        fill="#3D3D3D" p-id="3472"></path>
    <path d="M633.6 704m-44.8 0a44.8 44.8 0 1 0 89.6 0 44.8 44.8 0 1 0-89.6 0Z" fill="#3D3D3D" p-id="3473"></path>
</svg>