<?xml version="1.0" standalone="no"?>
<!DOCTYPE svg PUBLIC "-//W3C//DTD SVG 1.1//EN" "http://www.w3.org/Graphics/SVG/1.1/DTD/svg11.dtd"><svg t="1647968185503"
    id='tipping' class="icon" viewBox="0 0 1024 1024" version="1.1" xmlns="http://www.w3.org/2000/svg" p-id="8612"
    xmlns:xlink="http://www.w3.org/1999/xlink" width="26" height="26">
    <defs>
        <style type="text/css">
            @font-face {
                font-family: feedback-iconfont;
                src: url("//at.alicdn.com/t/font_1031158_u69w8yhxdu.woff2?t=1630033759944") format("woff2"), url("//at.alicdn.com/t/font_1031158_u69w8yhxdu.woff?t=1630033759944") format("woff"), url("//at.alicdn.com/t/font_1031158_u69w8yhxdu.ttf?t=1630033759944") format("truetype");
            }
        </style>
    </defs>
    <path
        d="M906.16 640a56.7 56.7 0 0 0-76.9-19.82l-242.74 140.1a64.76 64.76 0 0 1-54.52 4.78l-66.8-24.32a23.58 23.58 0 0 1-15.5-22.16 23.58 23.58 0 0 1 31.64-22.16L538 717.04a56 56 0 0 0 71.64-33.42A56 56 0 0 0 576.14 612L422 555.84l-59.6-16.86a129.52 129.52 0 0 0-82.34 4l-81.88 32v242.36l104.18-2a129.52 129.52 0 0 1 44.86 7.1l196 68a64.76 64.76 0 0 0 53.6-5.1l287.88-166.24c27.5-15.9 37.86-51.94 21.46-79.1z"
        fill="#2c2c2c" p-id="8613"></path>
    <path
        d="M114 526m14.66 0l104.36 0q14.66 0 14.66 14.66l0 293.34q0 14.66-14.66 14.66l-104.36 0q-14.66 0-14.66-14.66l0-293.34q0-14.66 14.66-14.66Z"
        fill="#2c2c2c" p-id="8614"></path>
    <path d="M180.84 789.4m-26.86 0a26.86 26.86 0 1 0 53.72 0 26.86 26.86 0 1 0-53.72 0Z" fill="#2c2c2c" p-id="8615">
    </path>
    <path d="M519.24 665.04a36.84 36.84 0 1 0 73.68 0 36.84 36.84 0 1 0-73.68 0Z" fill="#2c2c2c" p-id="8616"></path>
    <path d="M348 362m-120 0a120 120 0 1 0 240 0 120 120 0 1 0-240 0Z" fill="#2c2c2c" p-id="8617"></path>
    <path d="M348 362m-95.74 0a95.74 95.74 0 1 0 191.48 0 95.74 95.74 0 1 0-191.48 0Z" fill="#2c2c2c" p-id="8618">
    </path>
    <path
        d="M368.54 335.68a6.58 6.58 0 0 1-8.38-1.46 11.86 11.86 0 0 0-2.98-2.66 16.18 16.18 0 0 0-17.48 1.38 10.28 10.28 0 0 0-3.86 8.2q0 6.82 10.12 10.96l9.28 3.8q11.32 4.58 16.58 11.18a25.2 25.2 0 0 1 5.24 16.18 28.44 28.44 0 0 1-8.56 21.22 29.38 29.38 0 0 1-21.4 8.44 28.62 28.62 0 0 1-20-7.18 29.5 29.5 0 0 1-7.82-12.3 7.2 7.2 0 0 1 5.18-9.44 7.22 7.22 0 0 1 8.44 5.2 13.86 13.86 0 0 0 2 4.56 16 16 0 0 0 23.56 1.62 15.22 15.22 0 0 0 4.34-11.14 15.66 15.66 0 0 0-0.76-4.98 12.64 12.64 0 0 0-2.34-4.16 18.82 18.82 0 0 0-4.12-3.56 39.78 39.78 0 0 0-6-3.16l-8.98-3.74q-19.1-8-19.1-23.62a22.42 22.42 0 0 1 8-17.54 28.96 28.96 0 0 1 20-7.12 26.32 26.32 0 0 1 20.5 9.2 6.62 6.62 0 0 1-1.46 10.12z"
        fill="#2c2c2c" p-id="8619"></path>
    <path
        d="M348 427.08a7.38 7.38 0 0 1-7.38-7.38v-8.36a7.38 7.38 0 0 1 14.74 0v8.36a7.38 7.38 0 0 1-7.36 7.38zM348 325.72a7.38 7.38 0 0 1-7.38-7.38V310a7.38 7.38 0 0 1 14.74 0v8.36a7.38 7.38 0 0 1-7.36 7.36z"
        fill="#2c2c2c" p-id="8620"></path>
    <path d="M694 470m-118 0a118 118 0 1 0 236 0 118 118 0 1 0-236 0Z" fill="#2c2c2c" p-id="8621"></path>
    <path d="M694 470m-94.14 0a94.14 94.14 0 1 0 188.28 0 94.14 94.14 0 1 0-188.28 0Z" fill="#2c2c2c" p-id="8622">
    </path>
    <path
        d="M714.2 444.12a6.46 6.46 0 0 1-8.24-1.44 11.66 11.66 0 0 0-2.92-2.62 16 16 0 0 0-17.18 1.36 10 10 0 0 0-3.8 8q0 6.7 10 10.78l9.12 3.74q11.14 4.5 16.3 11a24.78 24.78 0 0 1 5.16 16 28 28 0 0 1-8.42 20.86 28.88 28.88 0 0 1-21.06 8.2 28.14 28.14 0 0 1-19.68-7.06 29 29 0 0 1-7.68-12 7.08 7.08 0 0 1 5.1-9.28 7.1 7.1 0 0 1 8.3 5.1 13.64 13.64 0 0 0 2 4.48 15.76 15.76 0 0 0 23.18 1.6 14.96 14.96 0 0 0 4.26-10.96 15.4 15.4 0 0 0-0.74-4.88 12.42 12.42 0 0 0-2.32-4 18.5 18.5 0 0 0-4-3.5 39.12 39.12 0 0 0-6-3.1l-8.82-3.68q-18.78-8-18.78-23.24a22 22 0 0 1 7.88-17.24 28.48 28.48 0 0 1 19.62-7 25.88 25.88 0 0 1 20.16 9.02 6.52 6.52 0 0 1-1.44 9.86z"
        fill="#2c2c2c" p-id="8623"></path>
    <path
        d="M694 534a7.24 7.24 0 0 1-7.24-7.24v-8.22a7.24 7.24 0 0 1 14.5 0v8.22A7.24 7.24 0 0 1 694 534zM694 434.32a7.24 7.24 0 0 1-7.24-7.24v-8.22a7.24 7.24 0 0 1 14.5 0v8.22a7.24 7.24 0 0 1-7.26 7.24z"
        fill="#2c2c2c" p-id="8624"></path>
    <path d="M590 210m-78 0a78 78 0 1 0 156 0 78 78 0 1 0-156 0Z" fill="#2c2c2c" p-id="8625"></path>
    <path d="M590 210m-62.24 0a62.24 62.24 0 1 0 124.48 0 62.24 62.24 0 1 0-124.48 0Z" fill="#2c2c2c" p-id="8626">
    </path>
    <path
        d="M603.36 192.9A4.28 4.28 0 0 1 598 192a7.7 7.7 0 0 0-2-1.72 10.52 10.52 0 0 0-11.36 0.9 6.68 6.68 0 0 0-2.5 5.32q0 4.42 6.58 7.12l6 2.46a25.78 25.78 0 0 1 10.78 7.26 16.38 16.38 0 0 1 3.4 10.52 18.48 18.48 0 0 1-5.56 13.78 19.1 19.1 0 0 1-14 5.48 18.6 18.6 0 0 1-13-4.66 19.18 19.18 0 0 1-5.08-8 4.68 4.68 0 0 1 3.36-6.14 4.7 4.7 0 0 1 5.48 3.38 9.02 9.02 0 0 0 1.36 2.96 10.42 10.42 0 0 0 15.32 1.06 10 10 0 0 0 2.82-7.24 10.18 10.18 0 0 0-0.5-3.24 8.22 8.22 0 0 0-1.52-2.7 12.24 12.24 0 0 0-2.68-2.32 25.86 25.86 0 0 0-4-2l-5.84-2.42q-12.42-5.24-12.42-15.36a14.56 14.56 0 0 1 5.22-11.4 18.82 18.82 0 0 1 12.96-4.62 17.1 17.1 0 0 1 13.32 6 4.3 4.3 0 0 1-0.78 6.48z"
        fill="#2c2c2c" p-id="8627"></path>
    <path
        d="M590 252.3a4.8 4.8 0 0 1-4.8-4.8V242a4.8 4.8 0 1 1 9.58 0v5.44a4.8 4.8 0 0 1-4.78 4.86zM590 186.42a4.8 4.8 0 0 1-4.8-4.8v-5.44a4.8 4.8 0 0 1 9.58 0v5.44a4.8 4.8 0 0 1-4.78 4.8z"
        fill="#2c2c2c" p-id="8628"></path>
</svg>