<?xml version="1.0" standalone="no"?>
<!DOCTYPE svg PUBLIC "-//W3C//DTD SVG 1.1//EN" "http://www.w3.org/Graphics/SVG/1.1/DTD/svg11.dtd"><svg t="1647877182373"
    id='type' class="icon" viewBox="0 0 1024 1024" version="1.1" xmlns="http://www.w3.org/2000/svg" p-id="3054"
    xmlns:xlink="http://www.w3.org/1999/xlink" width="26" height="26">
    <defs>
        <style type="text/css">
            @font-face {
                font-family: feedback-iconfont;
                src: url("//at.alicdn.com/t/font_1031158_u69w8yhxdu.woff2?t=1630033759944") format("woff2"), url("//at.alicdn.com/t/font_1031158_u69w8yhxdu.woff?t=1630033759944") format("woff"), url("//at.alicdn.com/t/font_1031158_u69w8yhxdu.ttf?t=1630033759944") format("truetype");
            }
        </style>
    </defs>
    <path
        d="M414.032031 327.280218a99.711969 99.711969 0 1 1-99.711969-99.711969 99.903969 99.903969 0 0 1 99.711969 99.711969m-66.52798 0a33.18399 33.18399 0 1 0-33.183989 33.183989 33.16799 33.16799 0 0 0 33.183989-33.183989"
        p-id="3055"></path>
    <path
        d="M612.463969 197.376258l301.279905 305.935905a103.375968 103.375968 0 0 1 30.399991 73.999977 101.951968 101.951968 0 0 1-30.031991 73.327977l-273.279914 266.111917a112.687965 112.687965 0 0 1-147.823954-0.16L153.392112 584.464137C94.81613 527.536155 79.888135 504.800162 79.888135 427.664186v-146.175954C79.888135 143.616275 107.920126 82.064294 274.000074 82.064294H411.088032c84.287974-0.16 133.391958 48.287985 201.423937 115.311964m-17.919995 671.59979l273.199915-265.967916a35.567989 35.567989 0 0 0 9.791997-25.711992 36.527989 36.527989 0 0 0-10.783997-26.879992l-273.423914-278.559913-27.711992-27.039992c-67.695979-66.863979-100.047969-96.39997-154.783951-96.399969h-137.039958c-118.959963 0-127.58396 18.415994-127.58396 132.895958v146.159954c0 52.591984 1.488 58.895982 53.423984 109.167966l339.615893 332.319896a39.311988 39.311988 0 0 0 27.535992 10.111997 39.711988 39.711988 0 0 0 27.711991-10.111997"
        p-id="3056"></path>
</svg>